<?xml version="1.0" standalone="no"?><!DOCTYPE svg PUBLIC "-//W3C//DTD SVG 1.1//EN" "http://www.w3.org/Graphics/SVG/1.1/DTD/svg11.dtd"><svg t="1714832971603" class="icon" viewBox="0 0 1024 1024" version="1.1" xmlns="http://www.w3.org/2000/svg" p-id="2338" xmlns:xlink="http://www.w3.org/1999/xlink" width="200" height="200"><path d="M590.084737 144.49971a73.664846 73.664846 0 1 0-50.607749-91.04975 73.664846 73.664846 0 0 0 50.607749 91.04975zM956.272688 348.624999a29.465938 29.465938 0 0 0-36.832423-19.226525c-60.699833 19.079195-127.955838 39.410693-159.189733 47.808485-54.953975-84.567243-117.863754-146.814039-147.329693-165.23025-17.016579-10.755068-32.044208-17.016579-71.675895-23.572751-51.565392-8.618787-171.491762 9.797425-228.361023 41.03132-9.797425 5.451199-20.994481 11.565381-85.009233 176.795631a29.465938 29.465938 0 0 0 16.795585 38.084725 28.287301 28.287301 0 0 0 10.607738 2.062616A29.465938 29.465938 0 0 0 282.828663 427.299055c23.278091-59.815855 52.817695-130.386778 63.425433-148.80299 37.642736-18.489876 106.151043-30.791906 151.675918-32.928186L397.156505 573.892099l-88.397816 117.863754-194.696188-153.37021a29.465938 29.465938 0 0 0-36.832424 46.261523l218.047945 172.154746a29.465938 29.465938 0 0 0 18.268882 6.335177 32.117873 32.117873 0 0 0 3.756907 0A29.465938 29.465938 0 0 0 337.414314 751.424378l114.254177-151.970578L665.37021 685.126017l-93.48069 300.626237a29.465938 29.465938 0 0 0 56.279943 17.532234l101.583822-326.335269A29.465938 29.465938 0 0 0 712.589376 640.927109L523.049727 564.683993l85.966876-279.926416A727.808681 727.808681 0 0 1 721.208163 425.825758a29.465938 29.465938 0 0 0 27.403323 13.996321c19.15286-1.546962 126.261546-34.622478 188.434677-54.290992a29.465938 29.465938 0 0 0 19.226525-36.906088z" fill="#333333" p-id="2339"></path></svg>